<svg xmlns="http://www.w3.org/2000/svg" width="31.27" height="31.27" viewBox="0 0 31.27 31.27">
  <g id="logout" transform="translate(4 -69)">
    <g id="Group_8" data-name="Group 8" transform="translate(-4 69)">
      <g id="Group_7" data-name="Group 7">
        <path id="Path_164" data-name="Path 164" d="M20.2,23.453h-1.3a.652.652,0,0,0-.651.651v4.56H2.606V2.606H18.241v4.56a.651.651,0,0,0,.651.651h1.3a.651.651,0,0,0,.651-.651V2.606A2.606,2.606,0,0,0,18.241,0H2.606A2.606,2.606,0,0,0,0,2.606V28.664A2.606,2.606,0,0,0,2.606,31.27H18.241a2.606,2.606,0,0,0,2.606-2.606V24.1A.652.652,0,0,0,20.2,23.453Z" transform="translate(0 0)" fill="#fff"/>
        <path id="Path_165" data-name="Path 165" d="M151.241,135.331l-7.818-7.166a.652.652,0,0,0-1.092.48v1.3a.651.651,0,0,0,.216.484l4.529,4.076H128.651a.651.651,0,0,0-.651.651v1.3a.651.651,0,0,0,.651.651h18.425l-4.529,4.076a.651.651,0,0,0-.216.484v1.3a.651.651,0,0,0,.389.6.642.642,0,0,0,.262.055.654.654,0,0,0,.44-.171l7.818-7.166a.652.652,0,0,0,0-.961Z" transform="translate(-120.182 -120.176)" fill="#fff"/>
      </g>
    </g>
  </g>
</svg>
