<svg xmlns="http://www.w3.org/2000/svg" width="30.737" height="36" viewBox="0 0 30.737 36">
  <g id="Group_12" data-name="Group 12" transform="translate(-10.8 -1.7)">
    <path id="Path_161" data-name="Path 161" d="M35.424,1.7A11.625,11.625,0,0,0,23.8,13.324c0,11.075,11.624,18.824,11.624,18.824S47.048,24.4,47.048,13.324A11.625,11.625,0,0,0,35.424,1.7Zm0,17.465a5.841,5.841,0,1,1,5.841-5.841,5.825,5.825,0,0,1-5.841,5.841Z" transform="translate(-9.241)" fill="#fff"/>
    <path id="Path_162" data-name="Path 162" d="M38.675,89.8h-6.94a32.378,32.378,0,0,1-5.552,4.973A32.378,32.378,0,0,1,20.631,89.8h-6.94L10.8,100.325H41.537Z" transform="translate(0 -62.625)" fill="#d5d5d5"/>
  </g>
</svg>
